<svg version="1.2" xmlns="http://www.w3.org/2000/svg" viewBox="0 0 429 429" width="429" height="429">
	<title>FullColor_1280x1024-svg</title>
	<style>
		.s0 { fill: #1b232a } 
		.s1 { fill: #9bec00 } 
	</style>
	<g id="background-logo">
	</g>
	<g id="text-logo-path">
	</g>
	<g id="logo-logo">
		<g>
			<g>
				<path class="s0" d="m158.9 158.4c-5.7 1.5 4.2 82.7-0.4 79.6l-96.2 184.1h229.6c220.4-21.8 26.2-266.7-108.2-266.8-8.5 0-16.8 1-24.8 3.1z"/>
			</g>
			<g>
				<path class="s0" d="m81.4 120.7c-0.1 1.2-0.2 2.4-0.3 3.6-3.5 60.1 41.4 89 71.4 111.7 74.5 50 181.5 138.4 133.4 184.1 35.9 0 66.8-10.6 87-30.2 38.4-51.2-5.4-168.1-81.5-204-46-21.8-143.8-78.6-174.4-119.9-0.9-1.2-2-1.8-3.2-1.8-10.5 0-30.2 44.4-32.4 56.5z"/>
			</g>
			<g>
				<path class="s0" d="m177.4 35.7c-25.2 14-18.8 113.7 47.7 76.2 27.7-15.5 97.1-21.8 155 47.6-7.4-46.1-27.9-82.2-56.4-107.4-0.1-0.1-0.1-0.1-0.2-0.1-37.1-28-65.7-36.7-88-36.7-27.9 0-45.9 13.7-58.1 20.4z"/>
			</g>
			<g>
				<path class="s1" d="m81.4 120.7c14.5 69.8 93.5 99.7 153.3 128 76 36 138.2 86.9 138.2 141.2 23.4-22.8 32.4-57.5 17.8-101.7-29.4-89.3-114.8-121-165.6-176.3-30.2-23.3-32.3-56.4-7.1-70.4 21.9-12.1 60.3-17.6 105.5 10.5-27-23.9-61.2-38-98.4-41.5q-7.5-0.7-14.8-0.7c-70.9 0-123.5 49.5-128.9 110.9z"/>
			</g>
		</g>
	</g>
</svg>